<?xml version="1.0" encoding="utf-8"?>
<!-- Generator: Adobe Illustrator 19.2.1, SVG Export Plug-In . SVG Version: 6.00 Build 0)  -->
<svg version="1.1" id="layer" xmlns="http://www.w3.org/2000/svg" xmlns:xlink="http://www.w3.org/1999/xlink" x="0px" y="0px"
	 viewBox="0 0 652 652" style="enable-background:new 0 0 652 652;" xml:space="preserve">
<style type="text/css">
	.st0{fill:#1B3668;}
</style>
<polygon class="st0" points="20.8,392.7 20.8,378.9 107.9,261.6 107.9,260.7 26.8,260.7 26.8,246.9 127.5,246.9 127.5,260.7 
	40.6,377.8 40.6,378.9 133.2,378.9 133.2,392.7 "/>
<g>
	<path class="st0" d="M183.7,293.7c-22.6,0-30.2,14.7-31.7,36.8h63.7C214.8,306.3,206.5,293.7,183.7,293.7 M184.1,395.7
		c-11.9,0-24.3-3-33.2-12.1c-10-10.4-14.1-25.8-14.1-44.7c0-18.3,4.7-34.9,16-45.4c7.9-7,17.9-11.3,32.4-11.3
		c11.5,0,22.8,3,31.3,10.6c12.1,10.9,13.8,27,13.8,49.2H152c0.4,27.3,12.1,40.7,34.5,40.7c13,0,25.8-2.8,40-6.4v12.8
		C213.3,392.3,198.4,395.7,184.1,395.7"/>
	<path class="st0" d="M393.2,392.7v-70.1c0-20.4-10.6-27.5-27.3-27.5c-10,0-20.4,3-35.1,8.3c2.3,6,3,12.8,3,19.8v69.4h-14.7v-70.1
		c0-20.4-10.6-27.5-27-27.5c-9.4,0-19.2,2.6-32.2,7.4v90.1h-14.7V285.2h12.4l0.6,5.5c12.8-4.3,25.5-8.5,37.7-8.5
		c11.1,0,21.9,3,29,10.9c13.6-4.9,31.7-10.9,44.9-10.9c11.7,0,22.8,3.4,30,11.9c6.2,7.9,7.7,17.7,7.7,29.2v69.4H393.2z"/>
	<path class="st0" d="M497.1,342.9c-9.2-1.1-21.3-1.7-29.8-1.7c-20.9,0-28.3,7.9-28.3,21.1c0,12.6,8.9,21.3,23.8,21.3
		c10.9,0,22.4-3.4,34.3-7.4V342.9z M499.2,392.7l-0.4-5.5c-13.8,4.5-25.6,8.5-39,8.5c-8.9,0-18.1-2.1-24.9-8.3
		c-7-6.2-10.4-14-10.4-24.9c0-11.3,4.7-22.4,15.5-27.9c8.1-4.3,16.4-4.9,27.7-4.9c8.1,0,19.6,0.6,29.4,1.7v-5.3
		c0-23.8-9.2-31.1-34.9-31.1c-8.7,0-17.2,0.9-25.3,1.9v-13c9.2-0.9,18.5-1.7,27.5-1.7c13.4,0,27.7,1.5,37.5,10.9
		c8.9,8.7,10,20.2,10,35.3v64.3H499.2z"/>
</g>
<polygon class="st0" points="538,285.2 569.1,326.7 569.7,326.7 600.8,285.2 617.2,285.2 578,336.9 620.8,392.7 602.7,392.7 
	568.2,346.9 567.6,346.9 533.1,392.7 516.7,392.7 559.3,336.9 519.9,285.2 "/>
</svg>
